<svg width="32" height="32" viewBox="0 0 32 32" xmlns="http://www.w3.org/2000/svg">
  <defs>
    <linearGradient id="fractalGradient" x1="0%" y1="0%" x2="100%" y2="100%">
      <stop offset="0%" style="stop-color:#ff6b6b;stop-opacity:1" />
      <stop offset="33%" style="stop-color:#4ecdc4;stop-opacity:1" />
      <stop offset="66%" style="stop-color:#ffe66d;stop-opacity:1" />
      <stop offset="100%" style="stop-color:#a8e6cf;stop-opacity:1" />
    </linearGradient>
  </defs>
  <rect width="32" height="32" fill="#000014"/>
  
  <!-- Fractal-like spiral pattern -->
  <path d="M16 4 C24 4, 28 8, 28 16 C28 20, 26 22, 22 22 C20 22, 19 21, 19 19 C19 18, 19.5 17.5, 20.5 17.5 C21 17.5, 21.2 17.7, 21.2 18.2 C21.2 18.4, 21.1 18.5, 20.9 18.5" 
        stroke="url(#fractalGradient)" 
        stroke-width="1.5" 
        fill="none" 
        stroke-linecap="round"/>
  
  <!-- Additional spiral arm -->
  <path d="M16 28 C8 28, 4 24, 4 16 C4 12, 6 10, 10 10 C12 10, 13 11, 13 13 C13 14, 12.5 14.5, 11.5 14.5 C11 14.5, 10.8 14.3, 10.8 13.8 C10.8 13.6, 10.9 13.5, 11.1 13.5" 
        stroke="url(#fractalGradient)" 
        stroke-width="1.5" 
        fill="none" 
        stroke-linecap="round"/>
  
  <!-- Center mandelbrot-like shape -->
  <circle cx="16" cy="16" r="3" fill="url(#fractalGradient)" opacity="0.8"/>
  <circle cx="16" cy="16" r="1.5" fill="#ffffff" opacity="0.9"/>
</svg> 